<svg width="25" height="30" viewBox="0 0 25 30" fill="none" xmlns="http://www.w3.org/2000/svg">
<path d="M17.5 5H20C20.663 5 21.2989 5.26339 21.7678 5.73223C22.2366 6.20107 22.5 6.83696 22.5 7.5V25C22.5 25.663 22.2366 26.2989 21.7678 26.7678C21.2989 27.2366 20.663 27.5 20 27.5H5C4.33696 27.5 3.70107 27.2366 3.23223 26.7678C2.76339 26.2989 2.5 25.663 2.5 25V7.5C2.5 6.83696 2.76339 6.20107 3.23223 5.73223C3.70107 5.26339 4.33696 5 5 5H7.5M8.75 2.5H16.25C16.9404 2.5 17.5 3.05964 17.5 3.75V6.25C17.5 6.94036 16.9404 7.5 16.25 7.5H8.75C8.05964 7.5 7.5 6.94036 7.5 6.25V3.75C7.5 3.05964 8.05964 2.5 8.75 2.5Z" stroke="#3B3B3B" stroke-width="4" stroke-linecap="round" stroke-linejoin="round"/>
</svg>
